Coordinates
version=1
nRows=24
nColumns=24
inDegrees=yes

Units are S.I. units (second, meters, Newtons, ...)
Angles are in degrees.

endheader
time	pelvis_tilt	pelvis_list	pelvis_rotation	pelvis_tx	pelvis_ty	pelvis_tz	hip_flexion_r	hip_adduction_r	hip_rotation_r	knee_angle_r	ankle_angle_r	subtalar_angle_r	mtp_angle_r	hip_flexion_l	hip_adduction_l	hip_rotation_l	knee_angle_l	ankle_angle_l	subtalar_angle_l	mtp_angle_l	lumbar_extension	lumbar_bending	lumbar_rotation
      4.67500000	     -9.44236004	     -9.70825920	      8.29204483	     -1.53000074	     -0.02154721	      0.43416225	     21.56078873	     10.07596117	     -7.89359117	    -14.08515469	     -6.24786786	     -5.24929109	      4.00854269	     17.53242316	     -9.31315291	      6.93110541	    -59.38911681	    -27.56662622	     -1.26209980	     27.59959167	      9.13665236	      7.28148586	     -8.02730306
      4.68000000	     -9.33827140	     -9.58093036	      8.17435375	     -1.52423777	     -0.02079304	      0.43467289	     20.88470096	     10.13526816	     -7.61467133	    -13.85523648	     -5.92335818	     -5.16548260	      4.01559549	     18.20039954	     -9.04485044	      7.03636922	    -60.21424007	    -27.18366397	     -3.00040324	     26.71143843	      8.96778772	      7.16434586	     -7.67104557
      4.68500000	     -9.24453744	     -9.42532549	      8.03078729	     -1.51850364	     -0.02001227	      0.43521003	     20.21043597	     10.16982362	     -7.31043487	    -13.61657528	     -5.61720200	     -5.08532180	      4.01148069	     18.85390240	     -8.75918391	      7.11958733	    -60.93159863	    -26.72034094	     -4.45726043	     25.97648308	      8.80430563	      7.02195528	     -7.28384395
      4.69000000	     -9.16709318	     -9.22743008	      7.87581479	     -1.51280639	     -0.01919934	      0.43576284	     19.53984779	     10.15936857	     -6.97569091	    -13.36291900	     -5.33357893	     -5.02839422	      3.99015203	     19.49926482	     -8.43191060	      7.19174486	    -61.53830724	    -26.21333256	     -5.68695566	     25.36528292	      8.65198953	      6.83121989	     -6.88191815
      4.69500000	     -9.11133811	     -8.98927099	      7.70184011	     -1.50713061	     -0.01837054	      0.43633829	     18.88030328	     10.10614397	     -6.61404793	    -13.09710795	     -5.06685184	     -4.98617159	      3.96623425	     20.13809327	     -8.06982212	      7.24224872	    -62.03399149	    -25.63535324	     -6.67975842	     24.90648440	      8.51845364	      6.59806893	     -6.46721968
      4.70000000	     -9.07897641	     -8.72068630	      7.52155517	     -1.50150309	     -0.01753177	      0.43690863	     18.23900156	     10.01273111	     -6.24271749	    -12.81943354	     -4.82369464	     -4.95139468	      3.94406175	     20.78051217	     -7.67631106	      7.28877685	    -62.42296642	    -24.98699614	     -7.44466970	     24.60265525	      8.40504446	      6.33158669	     -6.04473394
      4.70500000	     -9.07824580	     -8.48298382	      7.40052286	     -1.49589852	     -0.01672049	      0.43738500	     17.61431456	      9.91845311	     -5.90977931	    -12.48636527	     -4.61483629	     -4.88739035	      3.94083890	     21.46770455	     -7.28677404	      7.42402318	    -62.71965034	    -24.29125247	     -8.00358350	     24.54629400	      8.34495679	      6.08470772	     -5.70295421
      4.71000000	     -9.07623417	     -8.09171389	      7.08311056	     -1.49034358	     -0.01581459	      0.43807787	     17.00386769	      9.71892159	     -5.45024159	    -12.23733700	     -4.40622554	     -4.85560152	      3.91186509	     22.04622034	     -6.82623723	      7.27141092	    -62.88181619	    -23.51727151	     -8.47261185	     24.26646551	      8.22894313	      5.71469173	     -5.09238510
      4.71500000	     -9.11225771	     -7.70577111	      6.88256536	     -1.48484171	     -0.01497164	      0.43864017	     16.42898025	      9.47571149	     -5.07123619	    -11.95329089	     -4.18139791	     -4.84121205	      3.90649645	     22.68614890	     -6.32367052	      7.24886099	    -62.95433404	    -22.68705743	     -8.75622266	     24.22057780	      8.17528828	      5.32431964	     -4.69437163
      4.72000000	     -9.16237900	     -7.30625055	      6.59148584	     -1.47933052	     -0.01410325	      0.43928695	     15.85585580	      9.23147973	     -4.60273384	    -11.64931282	     -3.99819541	     -4.75469315	      3.91454743	     23.29409940	     -5.85121701	      7.13473901	    -62.91915930	    -21.76773547	     -8.85717369	     24.18412074	      8.13014933	      4.93336615	     -4.16595426
      4.72500000	     -9.23786376	     -6.86913940	      6.37704772	     -1.47390739	     -0.01329777	      0.43985051	     15.32862094	      8.91575692	     -4.22383966	    -11.36579807	     -3.77346485	     -4.72713904	      3.93459154	     23.93199272	     -5.31262913	      7.06492956	    -62.79438575	    -20.87366628	     -8.93567062	     24.22086062	      8.11161833	      4.48812855	     -3.78191058
      4.73000000	     -9.31873448	     -6.43259653	      6.03754863	     -1.46844814	     -0.01246050	      0.44052144	     14.79617522	      8.62022114	     -3.74690435	    -11.06163916	     -3.61880869	     -4.60056008	      3.97263868	     24.51903236	     -4.83699374	      6.88629142	    -62.56360109	    -19.86670455	     -8.81118412	     24.23648661	      8.09839690	      4.06942087	     -3.22333474
      4.73500000	     -9.40430612	     -5.99799054	      5.73498089	     -1.46302982	     -0.01170846	      0.44115999	     14.27466361	      8.31155607	     -3.29163480	    -10.75205724	     -3.42404882	     -4.52328896	      4.01608062	     25.11469329	     -4.36287589	      6.72198665	    -62.26745965	    -18.87161398	     -8.65603215	     24.20213226	      8.09739765	      3.64726494	     -2.74934211
      4.74000000	     -9.49843335	     -5.56267531	      5.43273905	     -1.45765042	     -0.01099071	      0.44176096	     13.77716635	      7.98898195	     -2.87259887	    -10.45319105	     -3.25839073	     -4.43765160	      4.06643141	     25.70168952	     -3.89094928	      6.55746012	    -61.88115841	    -17.92348417	     -8.51939986	     24.14941583	      8.10589532	      3.22899428	     -2.29525425
      4.74500000	     -9.58694424	     -5.15128577	      5.12354522	     -1.45228116	     -0.01034158	      0.44234378	     13.27746892	      7.68600179	     -2.44796787	    -10.14502599	     -3.09012302	     -4.35305654	      4.12217321	     26.27434896	     -3.46026472	      6.37804101	    -61.42747589	    -17.01408085	     -8.39867851	     24.05393824	      8.11772121	      2.84111876	     -1.84741164
      4.75000000	     -9.67220233	     -4.75512796	      4.81068693	     -1.44691368	     -0.00975455	      0.44290666	     12.78462759	      7.39263954	     -2.04285167	     -9.84235676	     -2.93205636	     -4.27676305	      4.17391676	     26.82921653	     -3.05640433	      6.19501273	    -60.89864895	    -16.17538015	     -8.32705877	     23.93000986	      8.13232977	      2.47459983	     -1.41398773
      4.75500000	     -9.74753904	     -4.38447776	      4.49727016	     -1.44157844	     -0.00923725	      0.44342504	     12.30164504	      7.11892128	     -1.66204965	     -9.56060835	     -2.78629649	     -4.21525428	      4.21601349	     27.36401914	     -2.68600642	      6.01500860	    -60.30079772	    -15.40444197	     -8.32938284	     23.78589383	      8.14052894	      2.13944115	     -1.00487386
      4.76000000	     -9.79721502	     -4.05210553	      4.15120049	     -1.43618758	     -0.00879627	      0.44393682	     11.77885412	      6.88838276	     -1.23456388	     -9.24805335	     -2.62999376	     -4.16283282	      4.25525799	     27.86209311	     -2.38980898	      5.79553873	    -59.65681019	    -14.70233756	     -8.35866253	     23.56892438	      8.13754881	      1.86388028	     -0.55989697
      4.76500000	     -9.82780504	     -3.74903682	      3.81182420	     -1.43080368	     -0.00842605	      0.44440595	     11.25003337	      6.68177272	     -0.81493670	     -8.95212082	     -2.48530697	     -4.14328044	      4.27885549	     28.33139581	     -2.13012066	      5.58507732	    -58.95447366	    -14.06914419	     -8.46907200	     23.30739885	      8.11808348	      1.62267155	     -0.14870851
      4.77000000	     -9.85552490	     -3.46388420	      3.48441062	     -1.42542573	     -0.00813128	      0.44479663	     10.73785783	      6.48248457	     -0.43669357	     -8.68378091	     -2.34272149	     -4.14120302	      4.28655326	     28.78451023	     -1.88562632	      5.39434326	    -58.18580492	    -13.51197776	     -8.65251942	     23.06166581	      8.09953004	      1.40419127	      0.21806676
      4.77500000	     -9.86261597	     -3.20876090	      3.15062023	     -1.41998266	     -0.00790885	      0.44520569	     10.19686805	      6.31428856	     -0.02492950	     -8.40661958	     -2.17291872	     -4.14856633	      4.28196491	     29.20334715	     -1.69838617	      5.18604805	    -57.36499347	    -13.03138891	     -8.88059408	     22.78432040	      8.07419512	      1.21835676	      0.59361803
      4.78000000	     -9.83807066	     -2.97656827	      2.78581025	     -1.41454379	     -0.00772678	      0.44557743	      9.62635928	      6.16817015	      0.39795861	     -8.12807808	     -2.02556058	     -4.17142278	      4.24382105	     29.57543517	     -1.55904716	      4.94810114	    -56.49909024	    -12.61090193	     -9.15091372	     22.44644749	      8.01257959	      1.07591644	      0.98891181
      4.78500000	     -9.78475132	     -2.77447075	      2.43272171	     -1.40909017	     -0.00759493	      0.44594181	      9.02003968	      6.04910381	      0.82155665	     -7.83638565	     -1.87971488	     -4.21883019	      4.16975824	     29.91232628	     -1.46835042	      4.70089550	    -55.59137025	    -12.24541588	     -9.43322180	     22.04761853	      7.92596234	      0.96017444	      1.38450176
      4.79000000	     -9.77765057	     -2.56621694	      2.13234713	     -1.40364686	     -0.00759617	      0.44619802	      8.48619325	      5.89988702	      1.20913936	     -7.59195387	     -1.66030332	     -4.25864625	      4.11823393	     30.28494135	     -1.34088514	      4.52356594	    -54.62060988	    -11.89092025	     -9.68358561	     21.73053383	      7.89035494	      0.83274079	      1.66952487
